#!OML:ASF H:\Dans Jumps\Project 1\Capture day 1\Session 1\subject.ASF
:FULLY-SPECIFIED
:DEGREES
408
root 0.387175 17.7215 -2.42842 6.82994 -1.9342 -1.2179
lowerback -0.218314 -0.243104 -0.644335
upperback 4.03078 -0.355359 1.2625
thorax 4.28539 -0.226155 1.64916
lowerneck -12.4064 0.538928 -2.07188
upperneck 36.077 0.942611 1.14608
head 14.4563 0.265805 0.982815
rclavicle 1.83876e-015 5.96354e-016
rhumerus -20.9744 -10.0524 -84.052
rradius 24.8367
rwrist 30.5557
rhand -18.7937 -25.9672
rfingers 7.12502
rthumb 7.50429 -55.8141
lclavicle 1.83876e-015 5.96354e-016
lhumerus -17.7794 -3.92243 88.6572
lradius 19.0165
lwrist 6.10903
lhand -26.3112 -4.31841
lfingers 7.12502
lthumb 0.24521 25.6612
rfemur -16.2398 -0.252622 18.6778
rtibia 23.8992
rfoot -12.9911 1.43201
rtoes 14.0102
lfemur -13.9584 6.6925 -17.5676
ltibia 20.6844
lfoot -9.60718 7.12007
ltoes 1.78609
409
root 0.38698 17.7213 -2.43043 6.82146 -1.914 -1.21736
lowerback -0.234187 -0.238397 -0.631815
upperback 4.03281 -0.349376 1.26186
thorax 4.29621 -0.22278 1.64168
lowerneck -12.4108 0.538568 -2.06536
upperneck 36.0924 0.941999 1.14298
head 14.4646 0.26603 0.980567
rclavicle -1.02374e-014 5.96354e-016
rhumerus -20.9892 -10.0901 -84.0429
rradius 24.8278
rwrist 30.5747
rhand -18.7941 -25.9698
rfingers 7.12502
rthumb 7.50387 -55.8167
lclavicle -1.02374e-014 5.96354e-016
lhumerus -17.8118 -3.90259 88.6648
lradius 18.9805
lwrist 6.07335
lhand -26.29 -4.30566
lfingers 7.12502
lthumb 0.265647 25.6739
rfemur -16.2358 -0.26297 18.6785
rtibia 23.9018
rfoot -12.9928 1.42206
rtoes 13.9998
lfemur -13.9605 6.69014 -17.5663
ltibia 20.6867
lfoot -9.60769 7.10007
ltoes 1.7975
410
root 0.386852 17.7212 -2.43239 6.81457 -1.89396 -1.21434
lowerback -0.251759 -0.232882 -0.620296
upperback 4.03364 -0.342222 1.25965
thorax 4.3067 -0.218816 1.63318
lowerneck -12.4132 0.536345 -2.06053
upperneck 36.1087 0.938011 1.14276
head 14.4728 0.264968 0.979273
rclavicle 2.23633e-015 6.4605e-015
rhumerus -21.0102 -10.1271 -84.0326
rradius 24.8198
rwrist 30.5941
rhand -18.7903 -25.9657
rfingers 7.12502
rthumb 7.50752 -55.8125
lclavicle 2.23633e-015 6.4605e-015
lhumerus -17.8483 -3.87739 88.6712
lradius 18.9449
lwrist 6.02504
lhand -26.27 -4.27773
lfingers 7.12502
lthumb 0.284993 25.7018
rfemur -16.2344 -0.276366 18.6766
rtibia 23.9063
rfoot -12.9953 1.41353
rtoes 13.9899
lfemur -13.9633 6.68993 -17.5683
ltibia 20.6876
lfoot -9.60869 7.07732
ltoes 1.8101
411
root 0.386724 17.7211 -2.43433 6.80699 -1.87559 -1.20629
lowerback -0.266951 -0.226756 -0.613946
upperback 4.03221 -0.33405 1.256
thorax 4.31349 -0.214467 1.62614
lowerneck -12.4105 0.532186 -2.05888
upperneck 36.1263 0.930768 1.14566
head 14.4806 0.26249 0.979298
rclavicle 2.73329e-015 2.38542e-015
rhumerus -21.0409 -10.1583 -84.0205
rradius 24.8158
rwrist 30.6082
rhand -18.7782 -25.9651
rfingers 7.12502
rthumb 7.51927 -55.8114
lclavicle 2.73329e-015 2.38542e-015
lhumerus -17.8914 -3.84915 88.678
lradius 18.9105
lwrist 5.96931
lhand -26.252 -4.23325
lfingers 7.12502
lthumb 0.302369 25.7463
rfemur -16.2338 -0.286931 18.6688
rtibia 23.9129
rfoot -12.9968 1.40284
rtoes 13.995
lfemur -13.9641 6.69107 -17.576
ltibia 20.6859
lfoot -9.60882 7.05379
ltoes 1.81982
412
root 0.386556 17.7209 -2.43623 6.79725 -1.85843 -1.19703
lowerback -0.277362 -0.220534 -0.610207
upperback 4.02898 -0.325673 1.25254
thorax 4.31569 -0.210077 1.62077
lowerneck -12.403 0.527775 -2.05841
upperneck 36.1432 0.923612 1.14782
head 14.487 0.2598 0.979194
rclavicle -7.8023e-015 2.40529e-014
rhumerus -21.078 -10.1841 -84.0073
rradius 24.812
rwrist 30.6201
rhand -18.7628 -25.9629
rfingers 7.12502
rthumb 7.53411 -55.8087
lclavicle -7.8023e-015 2.40529e-014
lhumerus -17.9423 -3.81434 88.6847
lradius 18.8783
lwrist 5.90831
lhand -26.2466 -4.2086
lfingers 7.12502
lthumb 0.307549 25.7709
rfemur -16.2312 -0.293112 18.6597
rtibia 23.9201
rfoot -12.9976 1.38763
rtoes 14.0053
lfemur -13.9607 6.69487 -17.5843
ltibia 20.6812
lfoot -9.61007 7.02735
ltoes 1.83984
413
root 0.386339 17.7208 -2.4382 6.78531 -1.84227 -1.18579
lowerback -0.284139 -0.214711 -0.608957
upperback 4.02552 -0.317733 1.24833
thorax 4.31562 -0.205966 1.61602
lowerneck -12.3901 0.523198 -2.06019
upperneck 36.1568 0.916033 1.15174
head 14.4905 0.256885 0.980063
rclavicle -1.98785e-015 -9.74045e-015
rhumerus -21.1163 -10.2028 -83.9965
rradius 24.8055
rwrist 30.6218
rhand -18.7207 -25.9857
rfingers 7.12502
rthumb 7.57477 -55.8301
lclavicle -1.98785e-015 -9.74045e-015
lhumerus -17.9984 -3.77475 88.6898
lradius 18.8468
lwrist 5.84309
lhand -26.2474 -4.19534
lfingers 7.12502
lthumb 0.306794 25.7842
rfemur -16.2266 -0.296121 18.6485
rtibia 23.9275
rfoot -12.9979 1.36929
rtoes 14.0108
lfemur -13.9533 6.70093 -17.5943
ltibia 20.6725
lfoot -9.60921 6.99925
ltoes 1.85851
